<?xml version="1.0" encoding="utf-8"?>
<!-- Generator: Adobe Illustrator 20.1.0, SVG Export Plug-In . SVG Version: 6.00 Build 0)  -->
<svg version="1.1" id="Layer_1" xmlns="http://www.w3.org/2000/svg" xmlns:xlink="http://www.w3.org/1999/xlink" x="0px" y="0px"
	 viewBox="0 0 59 54" enable-background="new 0 0 59 54" xml:space="preserve">
<g>
	<g>
		<path fill="#4E4540" d="M58.581,47.835c0-0.476-0.387-0.863-0.863-0.863c-0.476,0-0.863,0.387-0.863,0.863
			c0,0.476,0.387,0.863,0.863,0.863C58.194,48.697,58.581,48.31,58.581,47.835z M57.718,48.485c-0.359,0-0.651-0.292-0.651-0.651
			c0-0.359,0.292-0.651,0.651-0.651c0.359,0,0.651,0.292,0.651,0.651C58.369,48.193,58.077,48.485,57.718,48.485z"/>
		<path fill="#4E4540" d="M58.042,47.678v-0.005c0-0.083-0.025-0.15-0.071-0.196c-0.053-0.053-0.132-0.081-0.229-0.081h-0.318v0.846
			h0.175v-0.278h0.11l0.156,0.278h0.201l-0.18-0.314C57.978,47.887,58.042,47.806,58.042,47.678z M57.865,47.683
			c0,0.076-0.048,0.127-0.138,0.127h-0.129v-0.255h0.126c0.089,0,0.141,0.042,0.141,0.127V47.683z"/>
		<path fill="#4E4540" d="M6.765,45.317v-0.117c0-2.042-1.339-3.524-3.16-3.524c-1.834,0-3.186,1.509-3.186,3.537v0.117
			c0,2.042,1.339,3.511,3.16,3.511C5.412,48.84,6.765,47.345,6.765,45.317z M1.888,45.291v-0.078c0-1.288,0.663-2.237,1.69-2.237
			c1.001,0,1.717,0.962,1.717,2.25v0.078c0,1.287-0.663,2.25-1.69,2.25C2.603,47.553,1.888,46.578,1.888,45.291z"/>
		<path fill="#4E4540" d="M13.76,45.343v-0.182c0-2.328-1.3-3.485-2.679-3.485c-0.988,0-1.586,0.572-2.016,1.236v-1.105H7.596v8.856
			h1.469v-3.004c0.416,0.611,1.014,1.17,2.016,1.17C12.472,48.828,13.76,47.657,13.76,45.343z M9.039,45.317v-0.13
			c0-1.352,0.754-2.21,1.638-2.21c0.884,0,1.599,0.845,1.599,2.223v0.117c0,1.378-0.702,2.211-1.599,2.211
			C9.794,47.527,9.039,46.669,9.039,45.317z"/>
		<path fill="#4E4540" d="M20.127,47.774l-0.767-0.91c-0.455,0.442-0.936,0.728-1.586,0.728c-0.897,0-1.613-0.624-1.743-1.782h4.317
			c0.013-0.208,0.013-0.416,0.013-0.507c0-2.068-0.988-3.628-2.861-3.628c-1.69,0-2.939,1.482-2.939,3.55v0.104
			c0,2.159,1.378,3.511,3.147,3.511C18.735,48.84,19.503,48.437,20.127,47.774z M17.5,42.911c0.858,0,1.352,0.793,1.43,1.885h-2.913
			C16.122,43.626,16.694,42.911,17.5,42.911z"/>
		<path fill="#4E4540" d="M24.676,41.675c-0.936,0-1.495,0.533-1.886,1.144v-1.014h-1.469v6.892h1.469v-4.174
			c0-0.949,0.533-1.521,1.3-1.521c0.78,0,1.235,0.533,1.235,1.495v4.2h1.469v-4.616C26.795,42.612,26.002,41.675,24.676,41.675z"/>
		<path fill="#4E4540" d="M32.718,46.734v-0.013c0-1.079-0.806-1.573-1.873-2.055c-0.806-0.364-1.352-0.598-1.352-1.053v-0.026
			c0-0.377,0.325-0.676,0.871-0.676c0.546,0,1.118,0.26,1.638,0.611l0.624-1.079c-0.65-0.468-1.469-0.741-2.237-0.741
			c-1.287,0-2.276,0.78-2.276,2.015v0.026c0,1.131,0.858,1.599,1.886,2.041c0.819,0.351,1.352,0.572,1.352,1.066v0.013
			c0,0.429-0.351,0.754-0.962,0.754s-1.274-0.299-1.898-0.806l-0.689,1.053c0.793,0.663,1.743,0.962,2.562,0.962
			C31.691,48.828,32.718,48.086,32.718,46.734z"/>
		<path fill="#4E4540" d="M37.268,48.502v-1.209c-0.247,0.13-0.507,0.195-0.793,0.195c-0.468,0-0.741-0.221-0.741-0.754v-3.667
			h1.547v-1.261h-1.547v-1.86h-1.469v1.86H33.51l0.241,1.261h0.513v3.966c0,1.339,0.767,1.769,1.782,1.769
			C36.54,48.802,36.93,48.685,37.268,48.502z"/>
		<path fill="#4E4540" d="M42.899,42.43c-0.442-0.455-1.131-0.702-2.029-0.702c-0.923,0-1.613,0.221-2.276,0.546l0.416,1.17
			c0.455-0.208,1.001-0.416,1.664-0.416c0.936,0,1.482,0.481,1.482,1.404v0.286c-0.468-0.156-0.936-0.273-1.586-0.273
			c-1.456,0-2.445,0.728-2.445,2.21v0.065c0,1.339,0.962,2.107,2.107,2.107c0.897,0,1.508-0.39,1.911-0.975v0.845h1.443v-4.278
			C43.588,43.561,43.354,42.885,42.899,42.43z M42.17,46.383c0,0.78-0.65,1.352-1.495,1.339c-0.637-0.013-1.118-0.403-1.118-1.092
			v-0.026c0-0.728,0.494-1.157,1.339-1.157c0.494,0,0.936,0.104,1.274,0.247V46.383z"/>
		<path fill="#4E4540" d="M49.834,47.8l-0.793-0.975c-0.403,0.403-0.806,0.702-1.404,0.702c-1.001,0-1.703-0.897-1.703-2.237v-0.065
			c0-1.301,0.702-2.224,1.664-2.224c0.624,0,1.027,0.312,1.391,0.689l0.819-1.079c-0.572-0.572-1.222-0.936-2.211-0.936
			c-1.808,0-3.147,1.482-3.147,3.537v0.13c0,2.055,1.3,3.498,3.095,3.498C48.599,48.84,49.288,48.412,49.834,47.8z"/>
		<g>
			<polygon fill="#4E4540" points="54.331,45.12 53.3,46.229 54.683,48.697 56.387,48.697 			"/>
			<polygon fill="#4E4540" points="54.579,41.806 52.226,44.835 52.226,39.309 50.756,39.309 50.756,48.697 52.226,48.697 
				52.226,46.708 56.322,41.806 			"/>
		</g>
	</g>
	<g opacity="0.98">
		<path fill="#ED1944" d="M42.457,3.339H16.543c-1.627,0-2.957,1.331-2.957,2.957v6.969h7.188v-1.139c0-0.883,0.716-1.6,1.6-1.6
			h14.254c0.883,0,1.6,0.716,1.6,1.6v1.139h7.188V6.296C45.415,4.67,44.084,3.339,42.457,3.339z"/>
		<path fill="#ED1944" d="M38.227,25.702c0,0.883-0.716,1.6-1.6,1.6H22.373c-0.883,0-1.6-0.716-1.6-1.6v-1.139h-7.188v6.969
			c0,1.627,1.331,2.957,2.957,2.957h25.914c1.627,0,2.957-1.331,2.957-2.957v-6.969h-7.188V25.702z"/>
		<rect x="13.585" y="15.32" fill="#ED1944" width="7.188" height="7.188"/>
		<rect x="38.227" y="15.32" fill="#ED1944" width="7.188" height="7.188"/>
	</g>
</g>
</svg>
